<?xml version="1.0" encoding="utf-8"?>
<!-- Generator: Adobe Illustrator 19.1.0, SVG Export Plug-In . SVG Version: 6.00 Build 0)  -->
<svg version="1.1" id="Layer_1" xmlns="http://www.w3.org/2000/svg" xmlns:xlink="http://www.w3.org/1999/xlink" x="0px" y="0px"
	 viewBox="66 330.5 728.9 180.4" style="enable-background:new 66 330.5 728.9 180.4;" xml:space="preserve">
<style type="text/css">
	.st0{fill:#0A0B0A;}
	.st1{fill:#7A9E3E;}
</style>
<g>
	<g>
		<path class="st0" d="M115.5,346.3c1.7,0,2.4,0.6,2.4,2.3v6.1c0,1.8-0.8,2.4-2.4,2.4h-13.8v52.5c0,1.7-0.6,2.5-2.3,2.5H91
			c-1.7,0-2.4-0.8-2.4-2.5v-52.5H74.8c-1.7,0-2.4-0.7-2.4-2.4v-6.1c0-1.7,0.7-2.3,2.4-2.3H115.5z"/>
		<path class="st0" d="M138.9,372.9h20.9v-24.1c0-1.7,0.6-2.5,2.3-2.5h8.4c1.7,0,2.3,0.8,2.3,2.5v60.9c0,1.7-0.6,2.5-2.3,2.5h-8.4
			c-1.7,0-2.3-0.8-2.3-2.5v-25.9h-20.9v25.9c0,1.7-0.6,2.5-2.3,2.5h-8.4c-1.7,0-2.3-0.8-2.3-2.5v-60.9c0-1.7,0.6-2.5,2.3-2.5h8.4
			c1.7,0,2.3,0.8,2.3,2.5V372.9z"/>
		<path class="st0" d="M188.8,412.2c-1.7,0-2.3-0.8-2.3-2.5v-60.9c0-1.7,0.6-2.5,2.3-2.5H222c1.6,0,2.4,0.6,2.4,2.3v6.1
			c0,1.8-0.8,2.4-2.4,2.4h-22.4v15.7h20.7c1.7,0,2.5,0.6,2.5,2.3v5.8c0,1.7-0.8,2.3-2.5,2.3h-20.7v18H223c1.7,0,2.4,0.6,2.4,2.3v6.1
			c0,1.7-0.7,2.4-2.4,2.4h-34.2V412.2z"/>
	</g>
	<g>
		<path class="st0" d="M526.1,409.9c0,1.1-0.4,1.5-1.4,1.5h-4.8c-1.1,0-1.5-0.4-1.5-1.5v-6.4c0-1,0.4-1.5,1.5-1.5h4.8
			c1,0,1.4,0.5,1.4,1.5V409.9z"/>
		<path class="st0" d="M560.2,403.2c0,4.6-2.7,8.6-12.3,8.6s-12.4-4-12.4-8.6v-21.7c0-4.6,2.7-8.6,12.4-8.6c9.6,0,12.3,4,12.3,8.6
			v2.7c0,0.8-0.3,1.1-1,1.1H556c-0.8,0-1.1-0.3-1.1-1.1v-1.8c0-3-1.9-4.9-7-4.9c-5,0-6.9,1.9-6.9,4.9v19.9c0,3,1.9,4.9,6.9,4.9
			s7-1.8,7-4.9v-2.6c0-0.7,0.3-1.1,1.1-1.1h3.2c0.7,0,1,0.3,1,1.1V403.2z"/>
		<path class="st0" d="M566.7,381.5c0-4.6,3.1-8.6,12.7-8.6s12.8,4,12.8,8.6v21.7c0,4.6-3.1,8.6-12.8,8.6c-9.5,0-12.7-4-12.7-8.6
			V381.5z M586.7,382.4c0-3-2.2-4.9-7.3-4.9c-5,0-7.2,1.9-7.2,4.9v19.9c0,3,2.2,4.9,7.2,4.9s7.3-1.8,7.3-4.9V382.4z"/>
		<path class="st0" d="M632.6,410.3c0,0.7-0.3,1.1-1,1.1h-3.3c-0.7,0-1-0.3-1-1.1v-25.6c-0.1,0.3-0.8,2.8-1.3,4.1l-6.5,15.7
			c-0.3,0.7-0.7,1.1-1.4,1.1h-2.9c-0.7,0-1-0.4-1.3-1.1l-6.9-16.4c-0.6-1.2-1-3.2-1.1-3.4v25.5c0,0.7-0.3,1.1-1,1.1h-3.1
			c-0.7,0-1-0.3-1-1.1v-35.8c0-0.7,0.3-1.1,1-1.1h3.1c0.5,0,0.8,0.2,1,0.6l9.7,22.5c0.4,1,1.1,3.1,1.2,3.4c0.1-0.2,0.8-2.3,1.2-3.3
			l9.5-22.6c0.2-0.4,0.5-0.5,0.9-0.5h3.3c0.7,0,1,0.3,1,1.1v35.8H632.6z"/>
		<path class="st0" d="M650.3,409.9c0,1.1-0.4,1.5-1.4,1.5h-4.8c-1.1,0-1.5-0.4-1.5-1.5v-6.4c0-1,0.4-1.5,1.5-1.5h4.8
			c1,0,1.4,0.5,1.4,1.5V409.9z"/>
		<path class="st0" d="M665.8,389.2h14.5v-14.7c0-0.8,0.3-1.1,1-1.1h3.5c0.7,0,1,0.3,1,1.1v35.8c0,0.8-0.3,1.1-1,1.1h-3.5
			c-0.7,0-1-0.4-1-1.1v-16.5h-14.5v16.4c0,0.8-0.2,1.1-1,1.1h-3.4c-0.7,0-1-0.3-1-1.1v-35.7c0-0.8,0.3-1.1,1-1.1h3.4
			c0.8,0,1,0.3,1,1.1V389.2z"/>
		<path class="st0" d="M720.9,410.3c0.4,0.5,0.2,1.1-0.5,1.1H716c-0.8,0-1.2-0.5-1.6-1.1l-12.5-15.8h-1.4v15.8
			c0,0.7-0.3,1.1-1.1,1.1H696c-0.7,0-1-0.4-1-1.1v-35.9c0-0.7,0.3-1.1,1-1.1h3.4c0.8,0,1.1,0.3,1.1,1.1v16h1.3l11.7-16
			c0.4-0.6,1-1.1,1.7-1.1h3.7c0.7,0,0.9,0.5,0.5,1.1l-13,17.7L720.9,410.3z"/>
	</g>
	<g>
		<path class="st0" d="M280.9,362.9c0-4.7-3.2-7-9.4-7c-6.3,0-9.5,2.2-9.5,7v1.5c0,3.4,2.4,4.7,4,5.2l16.9,6
			c6.6,2.3,11.4,6.8,11.4,14v7.5c0,8.2-5.7,15.8-23.1,15.8c-17.3,0-23.2-7.6-23.2-15.8V391c0-1.7,0.7-2.5,2.3-2.5h8.1
			c1.7,0,2.3,0.8,2.3,2.5v4.4c0,4.7,3.7,7,10.3,7c6.5,0,10.3-2.2,10.3-7v-3.1c0-4-3.9-5.5-8.2-7.2l-15-5.6
			c-4.7-1.7-8.8-6.7-8.8-12.5v-5.7c0-8.1,5-15.8,22-15.8s22.4,7.7,22.4,15.8v4c0,1.7-0.7,2.4-2.4,2.4h-8.1c-1.6,0-2.2-0.8-2.2-2.4
			v-2.4H280.9z"/>
		<path class="st0" d="M342.4,346.1c1.6,0,2.4,0.6,2.4,2.3v6.1c0,1.7-0.8,2.4-2.4,2.4h-13.8v52.6c0,1.7-0.6,2.5-2.3,2.5h-8.4
			c-1.7,0-2.4-0.8-2.4-2.5V357h-13.8c-1.7,0-2.4-0.7-2.4-2.4v-6.1c0-1.7,0.7-2.3,2.4-2.3h40.7V346.1z"/>
		<path class="st0" d="M351.1,361.2c0-8.1,6-15.8,23.6-15.8c17.5,0,23.5,7.7,23.5,15.8v35.9c0,8.2-6,15.8-23.5,15.8
			s-23.6-7.6-23.6-15.8V361.2z M385.1,363.5c0-4.8-4-7.3-10.5-7.3s-10.4,2.4-10.4,7.3v31.2c0,4.8,3.9,7.3,10.4,7.3
			s10.5-2.4,10.5-7.3V363.5z"/>
		<path class="st0" d="M423.9,386.9v22.6c0,1.7-0.6,2.5-2.3,2.5h-8.4c-1.7,0-2.3-0.8-2.3-2.5v-60.9c0-1.7,0.6-2.5,2.3-2.5h20.4
			c17.5,0,23.5,7.7,23.5,15.8v9.2c0,5.7-2.9,11.1-10.7,14l10.3,24.4c0.7,1.5-0.5,2.5-2.2,2.5H446c-1.3,0-1.7-1-2.4-2.5l-9.6-22.6
			h-0.6H423.9z M423.9,357v19.1h9.6c6.5,0,10.5-2.4,10.5-7.3v-4.5c0-4.9-4-7.3-10.5-7.3H423.9z"/>
		<path class="st0" d="M471.3,412c-1.7,0-2.3-0.8-2.3-2.5v-60.9c0-1.7,0.6-2.5,2.3-2.5h33.2c1.6,0,2.4,0.6,2.4,2.3v6.1
			c0,1.7-0.8,2.4-2.4,2.4H482v15.7h20.7c1.7,0,2.5,0.6,2.5,2.3v5.8c0,1.7-0.8,2.3-2.5,2.3H482v18h23.3c1.7,0,2.4,0.6,2.4,2.3v6.1
			c0,1.8-0.7,2.4-2.4,2.4h-34V412z"/>
	</g>
</g>
<g>
	<g>
		<path class="st1" d="M341,466.9c0-0.2,0-0.4,0-0.7c0-0.3,0-0.5,0-0.5c0-0.1,0.1-0.3,0.3-0.5c0.2-0.2,0.4-0.4,0.5-0.4
			s0.2-0.1,0.6-0.1c0.3-0.1,0.6-0.1,1-0.2c0.3-0.1,0.7-0.1,1-0.2s0.5-0.1,0.6-0.1s0.3-0.1,0.6-0.1c0.2-0.1,0.5-0.1,0.7-0.2
			c0.2-0.1,0.5-0.2,0.9-0.2c0,0,0.1-0.2,0.2-0.7s0.1-0.8,0.2-1.1c0-0.2,0.1-0.6,0.2-1.3c0.1-0.7,0.2-1.4,0.3-2.1
			c0.1-0.8,0.2-1.5,0.3-2.1c0.1-0.6,0.2-1.1,0.2-1.2s0-0.3,0.1-0.6c0.1-0.3,0.2-0.8,0.3-1.2c0.1-0.4,0.2-0.8,0.3-1.3
			c0.1-0.4,0.2-0.8,0.3-1c0-0.1,0.1-0.3,0.2-0.5c0.1-0.3,0.2-0.5,0.3-0.7c0.1-0.2,0.2-0.4,0.2-0.6c0.1-0.2,0.1-0.3,0.1-0.4
			c0.1-0.1,0.2-0.3,0.4-0.7c0.2-0.3,0.3-0.6,0.4-0.7s0.3-0.3,0.5-0.6s0.5-0.6,0.8-0.9c0.3-0.3,0.5-0.6,0.7-0.9
			c0.2-0.3,0.4-0.4,0.5-0.5c0-0.1,0.2-0.2,0.4-0.3c0.2-0.1,0.4-0.2,0.5-0.2c0,0,0.1,0,0.3-0.1c0.2,0,0.4-0.1,0.6-0.2
			c0.2-0.1,0.5-0.1,0.7-0.2c0.2,0,0.4-0.1,0.5-0.1h0.2h0.2c0.1,0,0.3,0.1,0.6,0.2c0.3,0.1,0.6,0.1,0.7,0.2c0.1,0,0.2,0.1,0.5,0.2
			c0.2,0.1,0.4,0.2,0.5,0.2c0.2,0.1,0.4,0.2,0.8,0.4c0.3,0.2,0.5,0.3,0.6,0.4c0.1,0.1,0.3,0.2,0.5,0.4c0.2,0.2,0.4,0.3,0.6,0.5
			c0.2,0.2,0.4,0.3,0.5,0.5c0.1,0.2,0.2,0.2,0.2,0.3c0,0,0,0.2,0.1,0.4c0,0.2,0,0.4,0.1,0.6c0,0.1,0,0.2,0,0.3s0,0.2,0,0.4v0.5
			c0,0.1-0.1,0.2-0.2,0.3c-0.1,0.1-0.2,0.2-0.3,0.2c-0.1,0-0.3,0-0.6,0c-0.3,0-0.6,0-0.9,0s-0.6,0-0.9,0.1c-0.3,0-0.5,0.1-0.6,0.1
			c0,0-0.2,0.1-0.4,0.2c-0.3,0.2-0.4,0.3-0.4,0.3s-0.1,0-0.3,0.1c-0.2,0-0.4,0.1-0.6,0.2s-0.4,0.1-0.6,0.2c-0.2,0-0.3,0.1-0.3,0.1
			c-0.1,0-0.2,0.1-0.3,0.3c-0.1,0.2-0.3,0.3-0.5,0.5c-0.2,0.2-0.4,0.4-0.5,0.6c-0.1,0.2-0.3,0.3-0.3,0.4c-0.1,0.1-0.2,0.2-0.3,0.4
			c-0.1,0.2-0.2,0.4-0.4,0.7c-0.1,0.3-0.2,0.5-0.4,0.7c-0.1,0.2-0.2,0.4-0.2,0.5s-0.1,0.3-0.2,0.8c-0.1,0.4-0.2,0.8-0.2,1
			c0,0.1-0.1,0.4-0.1,0.6c0,0.3-0.1,0.6-0.1,0.8c0,0.3,0,0.5-0.1,0.8c0,0.2,0,0.4,0,0.4c0,0.1,0,0.3,0,0.8s0,0.8,0,1
			c0,0.1,0,0.4,0.1,0.9c0,0.4,0.1,0.7,0.1,0.9c0.2,0,0.5,0,1,0.1s1,0.1,1.5,0.2c0.5,0.1,1,0.1,1.5,0.2s0.8,0.1,1,0.1
			c0.1,0,0.2,0.1,0.5,0.2c0.2,0.1,0.4,0.2,0.5,0.2c0.1,0.1,0.2,0.2,0.5,0.4c0.2,0.2,0.4,0.4,0.5,0.4c0.1,0.1,0.2,0.2,0.3,0.4
			c0.1,0.2,0.2,0.4,0.2,0.4c0,0.1,0,0.3-0.1,0.7s-0.2,0.6-0.2,0.7s-0.2,0.3-0.5,0.6c-0.3,0.3-0.5,0.6-0.7,0.8
			c-0.2,0.1-0.4,0.3-0.7,0.5c-0.3,0.3-0.5,0.4-0.6,0.4s-0.4,0.1-0.7,0.2c-0.3,0.1-0.7,0.2-1,0.4c-0.4,0.1-0.7,0.2-1.1,0.3
			c-0.3,0.1-0.6,0.2-0.7,0.2l-0.4,0.9c0,0.4,0,1,0.1,1.8c0,0.8,0,1.7,0.1,2.8c0,1,0.1,2.1,0.1,3.2c0,1.1,0.1,2.2,0.1,3.2
			s0.1,1.9,0.1,2.7c0,0.8,0,1.4,0.1,1.8c0,0.1,0,0.3,0,0.6c0,0.3,0,0.7-0.1,1c0,0.4-0.1,0.8-0.1,1.1c0,0.4,0,0.7,0,0.9
			c0,0.1,0,0.3-0.1,0.5c0,0.3-0.1,0.5-0.1,0.7c0,0.2-0.1,0.4-0.1,0.6s-0.1,0.3-0.1,0.3c0,0.1-0.1,0.2-0.1,0.4
			c-0.1,0.2-0.1,0.4-0.2,0.6c-0.1,0.2-0.2,0.4-0.3,0.5c-0.1,0.2-0.1,0.3-0.2,0.3c-0.1,0.1-0.2,0.3-0.4,0.5c-0.2,0.2-0.3,0.4-0.5,0.6
			s-0.3,0.4-0.5,0.5c-0.2,0.2-0.3,0.2-0.3,0.3c-0.1,0-0.2,0.1-0.3,0.1h-0.4c-0.1,0-0.2,0-0.4,0c-0.2,0-0.3,0-0.3,0s-0.1,0-0.2-0.1
			s-0.2-0.2-0.3-0.2c-0.1-0.2-0.3-0.4-0.5-0.7c-0.2-0.3-0.3-0.5-0.3-0.6l-1.4-23.5c-0.1-0.1-0.2-0.1-0.3-0.2
			c-0.1-0.1-0.2-0.1-0.2-0.1c-0.1,0-0.1,0-0.2-0.1c-0.1,0-0.3-0.1-0.6-0.2c-0.3-0.1-0.7-0.2-1-0.2c-0.4-0.1-0.7-0.2-1-0.2
			c-0.3-0.1-0.5-0.1-0.6-0.1s-0.2-0.1-0.4-0.2c-0.2-0.1-0.4-0.2-0.6-0.2c-0.2-0.1-0.4-0.2-0.5-0.2c-0.2-0.1-0.3-0.1-0.3-0.1
			c-0.1-0.1-0.2-0.2-0.3-0.4c-0.1-0.2-0.2-0.4-0.2-0.4c0-0.1,0-0.3-0.1-0.6C341.1,467.3,341,467.1,341,466.9z"/>
		<path class="st1" d="M371.1,494.3c-0.6-0.3-1.3-0.7-2.1-1.1c-0.8-0.4-1.5-0.9-2.2-1.4s-1.3-1.1-1.9-1.7c-0.6-0.6-0.9-1.4-1.1-2.3
			c0-0.2-0.1-0.6-0.1-1.2c-0.1-0.6-0.1-1.3-0.1-2c0-0.7-0.1-1.4-0.1-2.1s0-1.2,0-1.6c-0.1-1.4,0.2-2.7,0.7-3.9
			c0.6-1.3,1.3-2.3,2.3-3.2c0,0,0.2-0.1,0.4-0.3c0.2-0.2,0.5-0.4,0.7-0.6c0.3-0.2,0.5-0.4,0.8-0.6s0.5-0.3,0.6-0.4
			c0.1,0,0.2-0.1,0.3-0.2c0.2-0.1,0.4-0.2,0.5-0.3c0.2-0.1,0.4-0.2,0.5-0.3c0.2-0.1,0.2-0.1,0.3-0.2c1.2-0.5,2.4-0.9,3.7-1.1
			c1.3-0.2,2.6-0.3,4-0.2c1.2,0.1,2.2,0.3,3.1,0.5c0.8,0.3,1.5,0.7,2,1.2s1,1.1,1.3,1.9s0.7,1.7,0.9,2.9c0.2,0.7,0.2,1.2,0.1,1.8
			c-0.2,0.5-0.4,1.1-0.7,1.8c-0.2,0.3-0.4,0.6-0.8,0.9c-0.4,0.4-1.1,0.7-2.2,1.1c-1.1,0.4-2.6,0.7-4.5,1.1c-1.9,0.3-4.5,0.6-7.8,0.8
			c-0.1,0.2-0.1,0.5-0.1,0.8c0,0.4,0,0.8,0,1.2s0.1,0.8,0.1,1.2c0.1,0.4,0.1,0.6,0.2,0.8c0.1,0.3,0.5,0.5,1,0.8
			c0.5,0.3,1,0.5,1.7,0.8c0.6,0.2,1.3,0.4,1.9,0.5s1.2,0.2,1.6,0.1c0.1,0,0.4-0.1,0.8-0.2c0.4-0.1,0.9-0.2,1.4-0.4
			c0.5-0.1,0.9-0.3,1.3-0.4c0.4-0.1,0.7-0.2,0.8-0.2c0.5,0,1.2-0.1,1.8-0.2c0.6-0.1,1.2-0.1,1.8-0.1c0.5,0.1,0.9,0.3,1.1,0.7
			s0.2,1-0.2,1.9c0,0.1-0.1,0.2-0.2,0.4c-0.1,0.2-0.3,0.3-0.5,0.5c-0.1,0.2-0.3,0.4-0.5,0.6s-0.3,0.3-0.4,0.4
			c-0.2,0.1-0.4,0.3-0.8,0.5c-0.4,0.2-0.7,0.4-1.1,0.6s-0.7,0.4-1,0.5c-0.3,0.2-0.5,0.3-0.6,0.3c-1.5,0.3-2.9,0.4-4.4,0.4
			C373.9,495,372.5,494.8,371.1,494.3z M371.1,476.9c-0.1,0.4-0.1,0.7,0.1,1c0.2,0.3,0.5,0.4,0.9,0.6c0.4,0.1,0.8,0.2,1.2,0.3
			c0.4,0.1,0.8,0.1,1.1,0.1c0.4-0.1,0.9-0.2,1.6-0.4c0.6-0.1,1.2-0.3,1.7-0.5c0.5-0.2,0.9-0.5,1.1-0.9s0.1-0.9-0.3-1.6
			c-0.1-0.1-0.2-0.1-0.3-0.2c-0.2-0.1-0.4-0.2-0.6-0.3s-0.5-0.2-0.7-0.3s-0.4-0.2-0.5-0.2c-1-0.1-2,0.1-2.9,0.6
			C372.5,475.5,371.7,476.1,371.1,476.9z"/>
		<path class="st1" d="M396.5,492.8c-0.6-0.3-1.3-0.7-2.1-1.1c-0.8-0.4-1.5-0.9-2.2-1.4s-1.3-1.1-1.9-1.7c-0.6-0.6-0.9-1.4-1.1-2.3
			c0-0.2-0.1-0.6-0.1-1.2c-0.1-0.6-0.1-1.3-0.2-2c0-0.7-0.1-1.4-0.1-2.1s0-1.2,0-1.6c-0.1-1.3,0.2-2.7,0.7-3.9
			c0.6-1.3,1.3-2.4,2.4-3.2c0,0,0.1-0.1,0.4-0.3c0.2-0.2,0.5-0.4,0.7-0.6c0.3-0.2,0.5-0.4,0.8-0.6s0.5-0.3,0.6-0.4
			c0.1,0,0.2-0.1,0.4-0.2c0.2-0.1,0.4-0.2,0.5-0.3c0.2-0.1,0.4-0.2,0.5-0.3c0.2-0.1,0.2-0.1,0.3-0.2c1.2-0.5,2.4-0.9,3.7-1.1
			c1.3-0.2,2.6-0.3,4-0.2c1.2,0.1,2.2,0.3,3.1,0.5c0.8,0.3,1.5,0.7,2,1.2s1,1.1,1.3,1.9c0.4,0.8,0.7,1.7,0.9,2.9
			c0.2,0.7,0.2,1.2,0,1.8c-0.2,0.5-0.4,1.1-0.7,1.8c-0.2,0.3-0.4,0.6-0.8,0.9s-1.1,0.7-2.2,1.1c-1.1,0.4-2.6,0.7-4.5,1.1
			c-2,0.3-4.6,0.6-7.8,0.8c0,0.2-0.1,0.5-0.1,0.8c0,0.4,0,0.8,0,1.2s0.1,0.8,0.2,1.2s0.1,0.6,0.2,0.8c0.2,0.3,0.5,0.5,1,0.8
			c0.5,0.3,1,0.5,1.7,0.8c0.6,0.2,1.3,0.4,1.9,0.5s1.2,0.2,1.6,0.1c0.1,0,0.4-0.1,0.8-0.2c0.4-0.1,0.9-0.2,1.4-0.4
			c0.5-0.1,0.9-0.3,1.3-0.4c0.4-0.1,0.7-0.2,0.8-0.2c0.6,0,1.2-0.1,1.8-0.2c0.7-0.1,1.3-0.1,1.8,0s0.9,0.3,1.1,0.7s0.2,1-0.2,1.9
			c0,0.1-0.1,0.2-0.2,0.3c-0.1,0.2-0.3,0.3-0.5,0.6c-0.2,0.2-0.3,0.4-0.5,0.5c-0.2,0.2-0.3,0.3-0.4,0.4c-0.2,0.1-0.4,0.3-0.8,0.5
			c-0.4,0.2-0.7,0.4-1.1,0.6c-0.4,0.2-0.7,0.4-1,0.5c-0.3,0.2-0.5,0.3-0.6,0.3c-1.4,0.3-2.9,0.4-4.4,0.4
			C399.3,493.6,397.9,493.3,396.5,492.8z M396.4,475.5c-0.1,0.4-0.1,0.7,0.2,1c0.2,0.2,0.5,0.4,0.9,0.6c0.4,0.1,0.8,0.2,1.2,0.3
			c0.4,0.1,0.8,0.1,1.1,0.1c0.4-0.1,0.9-0.2,1.6-0.4c0.6-0.1,1.2-0.3,1.7-0.5c0.5-0.2,0.9-0.5,1.1-0.9s0.1-0.9-0.4-1.6
			c0-0.1-0.1-0.1-0.3-0.2c-0.2-0.1-0.4-0.2-0.6-0.3s-0.5-0.2-0.7-0.3s-0.4-0.1-0.5-0.2c-1.1-0.1-2,0.1-2.9,0.6
			C397.9,474,397.1,474.7,396.4,475.5z"/>
		<path class="st1" d="M414.2,470.9c0-0.5-0.1-1.1-0.1-2c0-0.8-0.1-1.6-0.1-2.4c0-0.8-0.1-1.5-0.1-2.1s0-1,0-1.1c0-0.8,0-1.8,0-3.2
			c0.1-1.4,0.1-2.7,0.2-4c0.1-1.3,0.1-2.5,0.2-3.5s0.1-1.5,0.2-1.6c0.7-0.8,1.3-1.3,1.9-1.6c0.5-0.3,1-0.4,1.4-0.3s0.8,0.3,1.1,0.6
			c0.3,0.4,0.6,0.7,0.9,1.1l2.2,32.7c0,0.1,0.1,0.2,0.2,0.5c0.1,0.2,0.3,0.5,0.4,0.8c0.2,0.3,0.4,0.6,0.5,0.8
			c0.2,0.3,0.3,0.5,0.4,0.6s0.2,0.2,0.5,0.5c0.3,0.3,0.6,0.5,0.9,0.8c0.3,0.3,0.6,0.6,0.9,0.8c0.3,0.2,0.4,0.4,0.5,0.5
			c0,0.1,0,0.2,0.1,0.3c0.1,0.2,0.1,0.3,0.1,0.4s0,0.2-0.1,0.4c0,0.1,0,0.2,0,0.3s-0.1,0.2-0.2,0.4c-0.1,0.1-0.2,0.3-0.4,0.5
			c-0.1,0.2-0.3,0.3-0.4,0.4c-0.1,0.1-0.3,0.2-0.3,0.2s-0.2,0-0.4,0.1c-0.2,0-0.5,0.1-0.8,0.1s-0.6,0.1-0.9,0.1s-0.5,0.1-0.7,0.1
			s-0.4,0-0.7,0c-0.3,0-0.6,0-0.9,0s-0.6,0-0.8,0c-0.2,0-0.4,0-0.4,0s-0.1-0.1-0.2-0.1c-0.1-0.1-0.3-0.2-0.4-0.4
			c-0.1-0.1-0.3-0.3-0.4-0.4c-0.1-0.1-0.3-0.2-0.3-0.3c-0.1-0.1-0.2-0.3-0.4-0.6c-0.2-0.3-0.4-0.5-0.5-0.8c-0.2-0.3-0.3-0.5-0.5-0.8
			c-0.1-0.2-0.2-0.4-0.2-0.5c-0.1-0.4-0.2-1-0.4-2c-0.2-0.9-0.4-1.9-0.6-2.9s-0.4-1.9-0.6-2.8s-0.3-1.5-0.3-1.9c0-0.1,0-0.4-0.1-1
			s-0.1-1.4-0.2-2.2c-0.1-0.8-0.1-1.6-0.2-2.4C414.3,472.1,414.3,471.4,414.2,470.9z"/>
		<path class="st1" d="M478.7,497.1c-0.8,1.7-1.9,3.1-3.2,4c-1.3,0.9-2.8,1.6-4.3,1.9s-3,0.2-4.4-0.1c-1.5-0.3-2.7-0.9-3.7-1.7
			c-1-0.8-1.7-1.9-2-3.2c-0.3-1.3-0.1-2.7,0.6-4.4c0.1,0,0.4-0.1,0.9-0.1s0.7,0,0.9,0c0.2,0.1,0.5,0.2,1,0.4
			c0.5,0.2,0.8,0.3,0.9,0.4c0,0,0.2,0.1,0.3,0.3c0.2,0.2,0.4,0.3,0.6,0.5c0.2,0.2,0.4,0.4,0.6,0.5c0.2,0.2,0.3,0.3,0.4,0.3
			c1.1,0.3,2,0.3,2.7,0c0.8-0.3,1.4-0.7,2-1.2c0.6-0.6,1.1-1.3,1.6-2.1c0.5-0.8,1-1.6,1.4-2.5c0-0.2,0-0.5,0-1s-0.1-1-0.1-1.6
			c0-0.5-0.1-1.1-0.2-1.5c-0.1-0.5-0.1-0.8-0.2-1c-1.1,0.5-2.2,0.9-3.4,1.4c-1.2,0.4-2.5,0.7-3.8,1c-1.3,0.2-2.6,0.3-3.9,0.3
			s-2.5-0.3-3.6-0.7s-2.1-1.1-3-2s-1.6-2-2.2-3.5c-0.3-1-0.7-2-1-3s-0.4-2.1-0.3-3.2c0.2-1,0.4-1.9,0.6-2.6c0.2-0.8,0.5-1.5,0.8-2.1
			c0.3-0.7,0.7-1.3,1.1-1.9c0.5-0.6,1-1.2,1.8-2c-0.5,0-0.4-0.1,0.1-0.4c0.6-0.3,1.5-0.5,2.7-0.8c1.2-0.3,2.6-0.5,4.3-0.7
			c1.6-0.2,3.3-0.2,4.8,0c1.6,0.2,3.1,0.5,4.4,1.1s2.3,1.5,3,2.7c0.1,0.1,0.2,0.2,0.4,0.5c0.2,0.3,0.4,0.6,0.6,1s0.4,0.7,0.6,1.1
			s0.3,0.7,0.4,0.9c0.5,0.9,0.8,1.7,1.1,2.5c0.3,0.8,0.5,1.5,0.7,2.2c0.2,0.7,0.3,1.5,0.4,2.3c0.1,0.8,0.1,1.7,0.2,2.8
			c-0.1,2.7-0.3,5.4-0.7,7.9C480.3,492.1,479.6,494.6,478.7,497.1z M462,480.6c0.7,0.4,1.5,0.7,2.3,0.9c0.9,0.2,1.7,0.2,2.6,0.1
			c0.9-0.1,1.8-0.2,2.6-0.5c0.8-0.3,1.6-0.6,2.3-1.1c0.1-0.1,0.2-0.2,0.4-0.5c0.2-0.3,0.4-0.4,0.4-0.5c0.2-0.2,0.3-0.6,0.6-1.1
			c0.2-0.5,0.3-0.9,0.3-1c0.1-1.1,0.1-2.1,0-2.9c-0.1-0.8-0.4-1.5-0.8-2.2c-0.4-0.6-1-1.1-1.7-1.5c-0.8-0.4-1.7-0.7-2.9-1
			c-0.1,0-0.4,0-0.7,0c-0.3,0-0.6,0-0.9,0.1c-0.3,0-0.6,0-0.9,0s-0.4,0-0.5,0.1c-1.3,0.4-2.3,0.9-3.3,1.5c-0.9,0.6-1.5,1.3-2,2.2
			c-0.4,0.9-0.5,1.8-0.4,2.9s0.6,2.3,1.3,3.5c0.1,0.1,0.2,0.2,0.5,0.4C461.8,480.4,461.9,480.5,462,480.6z"/>
		<path class="st1" d="M484.3,476c0-0.1,0-0.3,0-0.6c0-0.3,0-0.5,0-0.8c0-0.2,0-0.6,0-0.9c0-0.1,0-0.2,0.1-0.5
			c0-0.3,0.1-0.5,0.2-0.8c0.1-0.3,0.1-0.6,0.2-0.9c0-0.3,0.1-0.5,0.2-0.7c0.2-0.7,0.4-1.4,0.7-2.2c0.3-0.8,0.7-1.5,1.1-2.1
			s0.8-1.2,1.4-1.6c0.6-0.5,1.1-0.9,1.7-1.4c1.5-0.6,2.9-1,4.3-1.3c1.4-0.3,2.7-0.4,3.8-0.4c1.2,0,2.2,0.2,3.1,0.6s1.6,0.9,2.1,1.6
			c0.1,0.1,0.2,0.2,0.3,0.5c0.2,0.2,0.4,0.4,0.5,0.6c0.2,0.2,0.4,0.6,0.7,1c0.3,0.4,0.5,0.6,0.5,0.7s0.1,0.2,0.2,0.5
			c0.1,0.3,0.2,0.5,0.4,0.9c0.1,0.3,0.2,0.7,0.4,1c0.1,0.3,0.2,0.6,0.3,0.8c0.2,0.4,0.3,0.8,0.4,1.2s0.2,0.9,0.2,1.4
			c0,0.8,0,1.6-0.1,2.3c-0.1,0.8-0.3,1.6-0.4,2.4c0,0.1-0.1,0.3-0.1,0.6c-0.1,0.3-0.1,0.6-0.2,1c-0.1,0.3-0.2,0.7-0.2,1
			c-0.1,0.3-0.1,0.5-0.2,0.7c-0.4,1.2-1,2.3-1.9,3.3c-0.8,1-1.9,1.9-3,2.5c-0.1,0-0.3,0.1-0.6,0.1c-0.3,0.1-0.6,0.2-0.9,0.3
			s-0.6,0.2-0.8,0.3c-0.3,0.1-0.4,0.2-0.5,0.2s-0.2,0.1-0.3,0.2c-0.1,0.1-0.2,0.2-0.4,0.3c-0.1,0.1-0.3,0.2-0.4,0.2
			c-0.1,0.1-0.2,0.1-0.2,0.1c-0.1,0-0.2,0-0.5,0.1c-0.3,0-0.5,0.1-0.7,0.1s-0.4,0-0.7,0c-0.3,0-0.5,0-0.6,0c0,0-0.2,0-0.5-0.1
			s-0.5-0.1-0.6-0.2c-0.1,0-0.3-0.1-0.7-0.3c-0.4-0.2-0.6-0.3-0.7-0.4c-0.6,0-1.1-0.1-1.7-0.5c-0.5-0.4-1.1-0.8-1.6-1.4
			c0,0-0.2-0.2-0.5-0.6c-0.3-0.4-0.5-0.6-0.6-0.8c-0.3-0.4-0.6-0.8-0.8-1.2c-0.2-0.4-0.5-0.8-0.7-1.2c0,0-0.1-0.2-0.2-0.6
			s-0.2-0.6-0.2-0.8c-0.1-0.2-0.2-0.6-0.3-1c-0.1-0.5-0.2-0.7-0.2-0.7s0-0.2,0-0.4c0-0.2,0-0.5,0-0.7c0-0.3-0.1-0.5-0.1-0.8
			C484.4,476.4,484.3,476.1,484.3,476z M489.8,475c0,0.1,0,0.3,0,0.5c0,0.2,0,0.4,0.1,0.6c0,0.2,0.1,0.4,0.1,0.5c0,0.2,0,0.3,0,0.3
			c0,0.1,0,0.2,0.1,0.4c0,0.2,0.1,0.4,0.2,0.7c0.1,0.2,0.1,0.5,0.2,0.7c0.1,0.2,0.1,0.4,0.2,0.5c0.1,0.2,0.2,0.5,0.5,0.9
			c0.2,0.4,0.4,0.7,0.5,0.8s0.4,0.3,0.7,0.7c0.4,0.3,0.6,0.5,0.8,0.6c0.7,0.3,1.5,0.4,2.4,0.3c0.9-0.2,1.7-0.4,2.3-0.8
			c0.1-0.2,0.2-0.4,0.5-0.5c0.2-0.1,0.4-0.3,0.5-0.4c0.1,0,0.3-0.2,0.7-0.6c0.3-0.3,0.6-0.5,0.7-0.6l0.1-0.1l0.1-0.1
			c0.1,0,0.1-0.1,0.1-0.3c0-0.2,0.1-0.3,0.1-0.3l0.1-0.1c0.1-0.1,0.1-0.2,0.1-0.2c0.1-0.1,0.1-0.3,0.3-0.7c0.1-0.4,0.2-0.6,0.2-0.7
			c0.1-0.1,0.1-0.3,0.2-0.6c0.1-0.3,0.1-0.5,0.1-0.5s0-0.1,0-0.3c0-0.2,0-0.3,0-0.5c0-0.2,0-0.4,0-0.6c0-0.2,0-0.4,0-0.5
			s0-0.3,0-0.6c0-0.2,0-0.4-0.1-0.6c0-0.2,0-0.4-0.1-0.5c0-0.2,0-0.2,0-0.3s-0.1-0.2-0.2-0.5c-0.1-0.3-0.2-0.4-0.3-0.6
			c-0.4-0.9-0.8-1.5-1.3-1.8c-0.5-0.3-1.1-0.7-1.9-1c-0.3-0.1-0.6-0.2-0.8-0.2c-0.2,0-0.5,0-0.8-0.1c-1,0.1-1.9,0.2-2.8,0.5
			c-0.2,0.1-0.4,0.2-0.6,0.4c-0.2,0.2-0.4,0.4-0.7,0.4c-0.1,0.1-0.2,0.2-0.3,0.3c-0.1,0.2-0.2,0.3-0.4,0.5c-0.1,0.2-0.3,0.3-0.4,0.4
			c-0.1,0.1-0.2,0.2-0.2,0.2c-0.1,0-0.2,0.2-0.3,0.5c-0.1,0.3-0.2,0.5-0.2,0.7c-0.1,0.2-0.1,0.4-0.3,0.8c-0.1,0.4-0.2,0.6-0.2,0.6
			c0,0.1,0,0.4,0,0.8C489.8,474.4,489.8,474.8,489.8,475z"/>
		<path class="st1" d="M508.5,474.6c0-0.1,0-0.3,0-0.6c0-0.3,0-0.5,0-0.8c0-0.2,0-0.6,0-0.9c0-0.1,0-0.2,0.1-0.5
			c0-0.3,0.1-0.5,0.2-0.8c0.1-0.3,0.1-0.6,0.2-0.9c0.1-0.3,0.1-0.5,0.2-0.7c0.2-0.7,0.4-1.4,0.7-2.2c0.3-0.8,0.7-1.5,1.1-2.1
			c0.3-0.6,0.8-1.1,1.4-1.6c0.6-0.5,1.1-0.9,1.6-1.4c1.5-0.6,2.9-1,4.3-1.3c1.4-0.3,2.7-0.4,3.8-0.4c1.2,0,2.2,0.2,3.1,0.6
			c0.9,0.4,1.6,0.9,2.1,1.6c0,0.1,0.2,0.2,0.3,0.5c0.2,0.2,0.3,0.4,0.4,0.6c0.2,0.2,0.4,0.6,0.7,1c0.3,0.4,0.5,0.6,0.5,0.7
			s0.1,0.2,0.2,0.5c0.1,0.2,0.2,0.5,0.4,0.9c0.1,0.3,0.2,0.7,0.4,1c0.1,0.3,0.2,0.6,0.3,0.8c0.2,0.4,0.3,0.8,0.4,1.2
			s0.2,0.9,0.2,1.4c0,0.8,0,1.6-0.1,2.3c-0.1,0.8-0.2,1.6-0.4,2.4c0,0.1-0.1,0.3-0.1,0.6c-0.1,0.3-0.1,0.6-0.2,1
			c-0.1,0.3-0.2,0.7-0.3,1c-0.1,0.3-0.1,0.5-0.2,0.7c-0.4,1.2-1.1,2.3-1.9,3.3s-1.8,1.9-3,2.5c-0.1,0-0.3,0.1-0.6,0.1
			c-0.3,0.1-0.6,0.2-0.9,0.3s-0.6,0.2-0.9,0.3c-0.2,0.1-0.4,0.2-0.5,0.2c-0.1,0-0.2,0.1-0.3,0.2c-0.1,0.1-0.3,0.2-0.4,0.3
			s-0.3,0.2-0.4,0.2c-0.1,0.1-0.2,0.1-0.3,0.1c-0.1,0-0.2,0-0.5,0.1c-0.3,0-0.5,0.1-0.7,0.1c-0.2,0-0.4,0-0.7,0c-0.3,0-0.5,0-0.6,0
			c0,0-0.2,0-0.5-0.1s-0.5-0.1-0.6-0.2c-0.1,0-0.3-0.1-0.7-0.3c-0.4-0.2-0.7-0.3-0.7-0.4c-0.6,0-1.2-0.1-1.7-0.5s-1.1-0.8-1.6-1.4
			c0,0-0.2-0.2-0.5-0.6c-0.3-0.4-0.5-0.6-0.6-0.8c-0.3-0.4-0.6-0.8-0.8-1.2c-0.2-0.4-0.5-0.8-0.7-1.2c0,0-0.1-0.2-0.3-0.6
			c-0.1-0.4-0.2-0.6-0.3-0.8c-0.1-0.2-0.2-0.6-0.3-1c-0.1-0.5-0.1-0.7-0.1-0.7s0-0.2,0-0.4c0-0.2,0-0.5-0.1-0.7c0-0.3,0-0.6-0.1-0.8
			C508.5,474.9,508.5,474.7,508.5,474.6z M514,473.6c0,0.1,0,0.3,0,0.5c0,0.2,0,0.4,0.1,0.6c0,0.2,0.1,0.4,0.1,0.5
			c0,0.2,0,0.2,0,0.3s0,0.2,0.1,0.4c0.1,0.2,0.1,0.4,0.2,0.7c0.1,0.2,0.1,0.5,0.2,0.7c0.1,0.2,0.2,0.4,0.2,0.5
			c0.1,0.2,0.2,0.5,0.5,0.9c0.2,0.4,0.4,0.7,0.5,0.8c0.1,0.1,0.4,0.3,0.7,0.7c0.4,0.3,0.6,0.5,0.8,0.6c0.7,0.3,1.5,0.4,2.4,0.3
			c0.9-0.2,1.7-0.4,2.3-0.8c0.1-0.2,0.2-0.4,0.5-0.5c0.2-0.1,0.4-0.3,0.5-0.4c0.1,0,0.3-0.2,0.7-0.6c0.3-0.3,0.6-0.5,0.7-0.6
			l0.1-0.1c0.1,0,0.1-0.1,0.1-0.1c0.1-0.1,0.1-0.1,0.1-0.3c0-0.2,0.1-0.3,0.1-0.3s0.1,0,0.1-0.1s0.1-0.2,0.1-0.2
			c0.1-0.1,0.2-0.3,0.3-0.7c0.1-0.4,0.2-0.6,0.2-0.7c0.1-0.1,0.1-0.3,0.2-0.6c0.1-0.3,0.1-0.5,0.1-0.5s0-0.1,0-0.3
			c0-0.2,0-0.3,0-0.5c0-0.2,0-0.4,0-0.6c0-0.2,0-0.4,0-0.5s0-0.3,0-0.6c0-0.2,0-0.4-0.1-0.6c0-0.2,0-0.4-0.1-0.5c0-0.2,0-0.3,0-0.3
			c0-0.1,0-0.2-0.2-0.5c-0.1-0.3-0.2-0.4-0.3-0.6c-0.4-0.9-0.8-1.5-1.3-1.8c-0.5-0.3-1.1-0.7-1.9-1c-0.3-0.1-0.6-0.2-0.8-0.2
			c-0.3,0-0.5,0-0.8-0.1c-1,0.1-1.9,0.2-2.8,0.5c-0.2,0-0.4,0.2-0.6,0.4c-0.2,0.2-0.5,0.4-0.7,0.4c-0.1,0.1-0.2,0.2-0.3,0.3
			c-0.1,0.2-0.2,0.3-0.4,0.5c-0.1,0.2-0.3,0.3-0.4,0.4c-0.1,0.1-0.2,0.2-0.2,0.2c-0.1,0-0.1,0.2-0.2,0.5c-0.1,0.3-0.2,0.5-0.3,0.7
			c0,0.2-0.1,0.4-0.3,0.8c-0.1,0.4-0.2,0.6-0.2,0.6c0,0.1,0,0.4,0,0.8C514,473,514,473.4,514,473.6z"/>
		<path class="st1" d="M532.1,474c0-0.2,0-0.5-0.1-0.9c0-0.4,0-0.8,0-1.1c0-0.4,0-0.7,0-1c0-0.3,0-0.5,0-0.5s0-0.1,0.1-0.3
			c0-0.1,0.1-0.3,0.1-0.5c0-0.2,0.1-0.4,0.1-0.5c0.1-0.2,0.1-0.3,0.1-0.4s0.1-0.3,0.2-0.6c0.1-0.3,0.2-0.5,0.3-0.6s0.1-0.2,0.3-0.4
			c0.1-0.2,0.2-0.4,0.3-0.6c0.1-0.2,0.2-0.4,0.3-0.5c0.1-0.1,0.1-0.2,0.2-0.3s0.2-0.3,0.4-0.5c0.2-0.3,0.4-0.5,0.6-0.8
			c0.2-0.3,0.5-0.5,0.7-0.7c0.2-0.2,0.4-0.4,0.4-0.4s0.2-0.1,0.3-0.3c0.2-0.1,0.4-0.3,0.7-0.4c0.3-0.1,0.5-0.3,0.7-0.4
			c0.2-0.1,0.4-0.2,0.5-0.3c0.1,0,0.2-0.1,0.4-0.2s0.4-0.1,0.7-0.2c0.2-0.1,0.5-0.2,0.7-0.2c0.2-0.1,0.4-0.1,0.5-0.1
			s0.4-0.1,0.8-0.2c0.4-0.1,0.9-0.1,1.3-0.2c0.5-0.1,1-0.2,1.4-0.2c0.5-0.1,0.8-0.1,1-0.2l1.2-0.1c0.2,0,0.4-0.1,0.7-0.2
			c0.3-0.1,0.6-0.2,0.9-0.2c0.3-0.1,0.6-0.2,0.8-0.2c0.2-0.1,0.4-0.1,0.4-0.1c0.1-0.1,0.2-0.2,0.3-0.5c0.1-0.3,0.2-0.5,0.2-0.6
			l-1-16.7c0-0.1,0.1-0.4,0.4-0.7c0.3-0.3,0.5-0.5,0.7-0.6c0,0,0.2,0,0.3,0c0.2,0,0.3,0,0.4-0.1c0.1,0,0.3,0,0.5,0
			c0.2,0,0.4,0,0.4,0s0.1,0.1,0.3,0.2c0.1,0.1,0.3,0.3,0.3,0.4c0.1,0.1,0.2,0.2,0.3,0.5c0.1,0.3,0.2,0.5,0.3,0.6
			c0.1,0.2,0.3,0.5,0.4,0.9c0.2,0.4,0.3,0.7,0.3,0.7l0.2,3.5l0.3,4.6c0,0.7,0,1.7,0.1,3c0.1,1.3,0.1,2.9,0.2,4.6s0.1,3.5,0.2,5.4
			s0.1,3.7,0.2,5.4c0.1,1.7,0.1,3.3,0.2,4.6c0,1.4,0.1,2.4,0.1,3c0,0.1,0,0.3,0,0.6c0,0.3-0.1,0.6-0.1,0.9c0,0.3-0.1,0.6-0.1,0.9
			c-0.1,0.3-0.1,0.5-0.1,0.6s-0.1,0.2-0.2,0.4c-0.1,0.2-0.2,0.4-0.3,0.7c-0.1,0.3-0.2,0.5-0.3,0.7c-0.1,0.3-0.2,0.4-0.2,0.5
			s-0.1,0.2-0.2,0.3c-0.1,0.2-0.2,0.2-0.3,0.3c-0.2,0.1-0.4,0.2-0.8,0.3c-0.3,0.1-0.7,0.3-1,0.4c-0.4,0.1-0.7,0.3-1,0.4
			s-0.5,0.2-0.6,0.2c-0.3,0-0.6,0-0.9,0.1c-0.2,0-0.5,0.1-0.7,0.1s-0.4,0-0.6,0c-0.2,0-0.4,0-0.7,0c-0.3,0-0.5,0-0.8,0
			c-0.2,0-0.5,0-0.7,0c-0.2,0-0.3,0-0.4,0s-0.2,0-0.5,0s-0.5-0.1-0.8-0.1s-0.6-0.1-0.9-0.1c-0.3-0.1-0.5-0.1-0.7-0.1
			c-0.2-0.1-0.5-0.1-1-0.3c-0.4-0.1-0.7-0.2-0.8-0.2c-0.2-0.1-0.4-0.2-0.8-0.4c-0.3-0.2-0.7-0.4-1.1-0.6c-0.4-0.2-0.7-0.4-1.1-0.6
			c-0.3-0.2-0.6-0.4-0.7-0.5c-0.1-0.1-0.3-0.3-0.5-0.5c-0.2-0.2-0.5-0.4-0.8-0.7c-0.3-0.2-0.5-0.4-0.7-0.6c-0.2-0.2-0.4-0.3-0.4-0.4
			c-0.1-0.1-0.3-0.4-0.5-0.7c-0.2-0.3-0.4-0.7-0.6-1.1c-0.2-0.4-0.4-0.7-0.6-1c-0.2-0.3-0.3-0.5-0.3-0.6c0-0.5-0.1-0.8-0.1-1.1
			c0-0.3-0.1-0.6-0.1-0.9C532.2,474.5,532.1,474.2,532.1,474z M537.3,473.4c0,0.2,0,0.5,0.1,0.9c0,0.4,0.1,0.6,0.1,0.6
			s0.1,0.1,0.2,0.3c0.1,0.1,0.2,0.3,0.4,0.5c0.1,0.2,0.3,0.4,0.4,0.5c0.1,0.2,0.2,0.3,0.3,0.4c0.1,0.1,0.2,0.2,0.4,0.4
			c0.2,0.2,0.4,0.3,0.6,0.5c0.2,0.2,0.4,0.3,0.5,0.5c0.2,0.2,0.3,0.3,0.4,0.3c0.1,0.1,0.3,0.1,0.5,0.3c0.2,0.1,0.5,0.2,0.7,0.3
			c0.3,0.1,0.5,0.2,0.7,0.3c0.2,0.1,0.3,0.1,0.4,0.1s0.3,0,0.6,0c0.3,0,0.7,0,1.1,0s0.8,0,1.2,0s0.7,0,0.9,0c0.1,0,0.3,0,0.6-0.1
			c0.3,0,0.6-0.1,0.8-0.1c0.3,0,0.5-0.1,0.7-0.1s0.4,0,0.5,0l0.5-0.6l-0.7-11.6c0-0.1-0.2-0.2-0.5-0.3s-0.5-0.2-0.7-0.2
			c-0.4,0-0.7,0-0.9,0c-0.2,0-0.5,0-0.7,0c-0.2,0-0.4,0-0.6,0s-0.4,0-0.6,0c-0.2,0-0.5,0-0.8,0.1c-0.3,0-0.5,0.1-0.7,0.1
			c-0.2,0-0.3,0-0.3,0c-0.1,0-0.2,0-0.4,0.1c-0.2,0.1-0.4,0.1-0.6,0.2c-0.2,0.1-0.5,0.1-0.7,0.2c-0.2,0.1-0.4,0.2-0.5,0.2
			c-0.1,0.1-0.3,0.2-0.6,0.4c-0.3,0.1-0.4,0.3-0.5,0.3c-0.1,0.1-0.2,0.2-0.4,0.4c-0.2,0.2-0.3,0.3-0.5,0.5c-0.2,0.2-0.3,0.4-0.5,0.6
			c-0.2,0.2-0.3,0.3-0.3,0.4c-0.1,0.1-0.2,0.3-0.3,0.5c-0.1,0.2-0.2,0.5-0.3,0.7c-0.1,0.3-0.2,0.5-0.3,0.7c-0.1,0.2-0.1,0.4-0.1,0.4
			s0,0.2,0,0.6C537.3,472.9,537.3,473.2,537.3,473.4z"/>
		<path class="st1" d="M583.4,461.7c0-0.1,0-0.3,0-0.5c0-0.2,0.1-0.4,0.1-0.7c0.1-0.3,0.1-0.5,0.1-0.7c0-0.2,0.1-0.4,0.1-0.5
			s0.1-0.3,0.2-0.6c0.1-0.3,0.2-0.5,0.3-0.6c0-0.1,0.1-0.2,0.2-0.3c0.1-0.1,0.2-0.2,0.3-0.3c0.2-0.1,0.4-0.2,0.7-0.4
			c0.3-0.2,0.4-0.3,0.5-0.3c0,0,0.2,0.1,0.5,0.2s0.5,0.2,0.7,0.3c0.1,0,0.2,0.1,0.4,0.2s0.4,0.2,0.5,0.3c0.2,0.1,0.3,0.2,0.5,0.3
			s0.3,0.2,0.4,0.2c0.1-0.1,0.4-0.3,0.7-0.5c0.3-0.2,0.7-0.5,1-0.7c0.4-0.3,0.7-0.5,1-0.8c0.3-0.2,0.5-0.4,0.7-0.5
			c0.1-0.1,0.2-0.2,0.6-0.3c0.3-0.2,0.5-0.3,0.6-0.3c0.2-0.1,0.5-0.3,0.9-0.5c0.4-0.2,0.7-0.3,0.7-0.3s0.1,0,0.3,0s0.4,0,0.6-0.1
			c0.2,0,0.5-0.1,0.7-0.1s0.4,0,0.6,0c0.3,0,0.7,0,1.1,0c0.5,0,0.8,0,0.8,0c0.1,0,0.2,0.1,0.4,0.1c0.2,0.1,0.4,0.2,0.7,0.3
			c0.2,0.1,0.5,0.2,0.8,0.4c0.2,0.1,0.4,0.2,0.5,0.2c0.1,0.1,0.3,0.3,0.6,0.5c0.3,0.3,0.5,0.5,0.6,0.5c0,0.1,0.1,0.3,0.3,0.6
			c0.2,0.3,0.4,0.6,0.6,1c0.2,0.4,0.4,0.7,0.6,1.1c0.2,0.4,0.4,0.6,0.5,0.8c0.1,0.1,0.2,0.4,0.4,0.8s0.3,0.7,0.3,0.9
			c0,0.1,0.1,0.4,0.2,0.7c0.1,0.3,0.2,0.7,0.2,1c0.1,0.4,0.2,0.7,0.2,1c0.1,0.3,0.1,0.6,0.1,0.7c0,0.3,0.1,0.8,0.2,1.5
			c0.1,0.7,0.2,1.5,0.3,2.3c0.1,0.8,0.2,1.5,0.3,2.2c0.1,0.7,0.2,1.2,0.2,1.5c0,0,0,0.2,0,0.4c0,0.2,0.1,0.4,0.1,0.7
			c0,0.3,0,0.5,0.1,0.8c0,0.3,0.1,0.5,0.1,0.6s0,0.3,0,0.6c0,0.2,0,0.5,0,0.7c0,0.2,0,0.5,0,0.9c0,0.1,0,0.4,0,0.7
			c0,0.3-0.1,0.6-0.1,0.9c0,0.3-0.1,0.6-0.1,0.8c-0.1,0.2-0.1,0.4-0.1,0.5c-0.1,0.2-0.2,0.4-0.5,0.7c-0.3,0.3-0.4,0.5-0.6,0.5
			c0,0-0.2,0-0.4,0.1c-0.3,0-0.5,0-0.6,0.1c-0.2,0-0.4,0-0.7,0s-0.5,0-0.5,0s-0.1-0.1-0.3-0.2c-0.1-0.1-0.2-0.2-0.3-0.3
			s-0.2-0.3-0.4-0.6c-0.2-0.3-0.3-0.5-0.3-0.6s-0.1-0.3-0.2-0.6c-0.1-0.3-0.2-0.6-0.2-0.9c-0.1-0.3-0.1-0.6-0.2-0.9
			c-0.1-0.3-0.1-0.4-0.1-0.5c0,0,0-0.2,0-0.4c0-0.2,0-0.5-0.1-0.8c0-0.3-0.1-0.6-0.1-0.9c0-0.3,0-0.6,0-0.8c0-0.2,0-0.4,0-0.7
			c0-0.3,0-0.6,0-0.9c0-0.3,0-0.6,0-0.8c0-0.2,0-0.4,0-0.4c0-0.1,0-0.3,0-0.7c0-0.3,0.1-0.7,0.1-1.1s0.1-0.8,0.1-1.1
			c0-0.3,0.1-0.5,0.1-0.7c0,0,0-0.2,0-0.6c0-0.4,0-0.7,0-0.9c0-0.2,0-0.4-0.1-0.8c-0.1-0.3-0.1-0.5-0.1-0.6s-0.1-0.3-0.2-0.7
			c-0.2-0.4-0.3-0.7-0.4-0.9c-0.1-0.1-0.2-0.3-0.3-0.6c-0.1-0.3-0.2-0.4-0.3-0.5s-0.2-0.2-0.4-0.3s-0.4-0.2-0.5-0.3
			c-0.2-0.1-0.4-0.2-0.5-0.3c-0.2-0.1-0.3-0.1-0.3-0.1s-0.2,0-0.6,0c-0.4,0-0.6,0-0.8,0s-0.5,0-0.9,0.1c-0.4,0-0.6,0.1-0.7,0.1
			c-0.1,0-0.2,0.1-0.5,0.2c-0.3,0.2-0.5,0.3-0.6,0.4c-0.1,0.1-0.2,0.2-0.3,0.3s-0.2,0.2-0.2,0.3s-0.1,0.3-0.2,0.8
			c-0.1,0.4-0.2,0.8-0.2,1c0,0.1-0.1,0.3-0.1,0.6c-0.1,0.3-0.1,0.5-0.2,0.8c0,0.3-0.1,0.5-0.1,0.7c-0.1,0.2-0.1,0.3-0.1,0.3
			c0,0.3,0,0.9-0.1,1.6c0,0.7-0.1,1.6-0.1,2.5s-0.1,1.9-0.1,2.9s0,2-0.1,2.9c0,0.9-0.1,1.7-0.1,2.5c0,0.7,0,1.3,0,1.6
			c0,0.2,0,0.5-0.2,0.9c-0.1,0.4-0.2,0.7-0.3,0.9c-0.1,0.1-0.2,0.2-0.3,0.4c-0.1,0.2-0.3,0.4-0.5,0.6s-0.3,0.4-0.5,0.6
			s-0.3,0.3-0.3,0.3c-0.1,0-0.1,0.1-0.2,0.1h-0.3c-0.1,0-0.2,0-0.3,0c-0.2,0-0.3,0-0.3,0c-0.1,0-0.3-0.1-0.6-0.2s-0.5-0.2-0.5-0.3
			c-0.2-0.1-0.4-0.4-0.7-0.8c-0.3-0.4-0.5-0.7-0.6-0.8c0-0.1-0.1-0.2-0.2-0.4c-0.1-0.2-0.1-0.5-0.2-0.7c-0.1-0.2-0.2-0.5-0.2-0.7
			c-0.1-0.2-0.1-0.4-0.1-0.5c0-0.2-0.1-0.7-0.2-1.5c-0.1-0.8-0.2-1.6-0.3-2.5s-0.2-1.7-0.3-2.5c-0.1-0.8-0.2-1.3-0.2-1.5
			c0-0.1,0-0.3-0.2-0.7c-0.1-0.4-0.2-0.8-0.2-1.3c-0.1-0.5-0.2-0.9-0.3-1.3c-0.1-0.4-0.1-0.7-0.1-0.8c0-0.2-0.1-0.6-0.2-1.1
			c-0.1-0.5-0.2-1-0.3-1.5s-0.2-0.9-0.3-1.3c-0.1-0.4-0.1-0.6-0.1-0.7v-0.6L583.4,461.7z"/>
		<path class="st1" d="M609.8,465.5c0-0.3,0-0.9-0.1-1.7c0-0.8-0.1-1.7-0.1-2.5c0-0.9-0.1-1.7-0.1-2.5c0-0.8-0.1-1.4-0.1-1.7
			c0.2-0.3,0.4-0.6,0.7-0.8c0.3-0.3,0.7-0.5,1.4-0.7c0.5,0,1,0.1,1.6,0.3s1,0.6,1.3,1c0.2,4.3,0.5,7.6,0.8,10s0.6,4.2,0.9,5.4
			c0.3,1.2,0.6,1.9,0.8,2.2c0.3,0.3,0.5,0.5,0.6,0.5c0,0,0.2,0,0.3,0c0.2,0,0.4,0,0.7,0c0.2,0,0.5,0,0.7,0s0.4,0,0.5,0
			c0.2,0,0.3,0,0.5,0s0.5-0.1,0.7-0.1s0.5-0.1,0.8-0.1c1.6-0.7,2.7-1.8,3.2-3.3s0.8-3.1,0.8-4.9s-0.1-3.6-0.4-5.4
			c-0.3-1.8-0.4-3.5-0.5-4.9c0.2-1,0.4-1.7,0.7-2.2s0.9-0.8,1.8-0.9c0.2,0,0.5,0,0.9,0s0.6,0,0.7,0c0.2,0.1,0.5,0.3,0.8,0.6
			c0.4,0.3,0.6,0.6,0.7,0.7c0.1,0.5,0.3,1.3,0.5,2.5c0.2,1.2,0.4,2.4,0.7,3.8c0.2,1.3,0.4,2.6,0.6,3.8c0.2,1.2,0.3,2.1,0.4,2.5
			l0.3,4.9l0.3,4.9c-0.1,0.1-0.3,0.4-0.6,0.8c-0.3,0.4-0.6,0.6-0.8,0.7c-0.1,0-0.4,0.1-0.8,0.1c-0.4,0-0.9,0-1.3,0
			c-0.5,0-0.9,0-1.3,0c-0.4,0-0.7,0.1-0.8,0.1c-0.6,0.5-1.2,0.9-1.7,1.1s-1.1,0.4-1.6,0.5c-0.6,0.1-1.2,0.2-1.9,0.2
			s-1.5,0.1-2.4,0.2c-1,0.1-1.8,0.1-2.5,0.2s-1.4,0-2-0.1s-1.2-0.4-1.7-0.8c-0.5-0.4-1.1-1-1.7-1.8c-0.6-0.9-1-1.9-1.3-2.8
			c-0.3-1-0.5-2-0.6-3.1s-0.2-2.1-0.3-3.2C610,467.8,609.9,466.7,609.8,465.5z"/>
		<path class="st1" d="M640.9,458.1c-0.3-0.1-0.8-0.2-1.5-0.4c-0.7-0.2-1.4-0.5-2.2-0.7c-0.8-0.3-1.5-0.5-2.2-0.7
			c-0.7-0.2-1.1-0.4-1.4-0.5c-0.6-0.4-1-0.7-1.2-0.9c-0.1-0.3-0.1-0.5,0-0.7c0.2-0.2,0.5-0.4,0.9-0.6c0.5-0.2,0.9-0.4,1.5-0.7
			c0.2-0.1,0.5-0.2,0.9-0.4c0.5-0.2,1-0.3,1.5-0.5c0.5-0.2,1-0.4,1.5-0.5s0.8-0.2,1-0.3c-0.2-3.2-0.3-5.8-0.2-7.6
			c0-1.9,0.2-3.3,0.3-4.2c0.2-1,0.4-1.6,0.6-1.8c0.2-0.3,0.4-0.4,0.6-0.5c0.3-0.1,0.6-0.2,1-0.2c0.4-0.1,0.8-0.1,1.2-0.2
			c0.4-0.1,0.9-0.1,1.3-0.2l0.8,13.1c0,0,0.1,0.1,0.3,0.2c0.1,0.1,0.4,0.2,0.6,0.4c0.2,0.1,0.5,0.3,0.7,0.4s0.4,0.2,0.6,0.3
			c1-0.1,2,0,2.8,0.3c0.9,0.3,1.8,0.5,2.9,0.8c0.2,0.1,0.5,0.3,0.8,0.6c0.4,0.3,0.6,0.6,0.7,0.8c-0.1,0.2-0.3,0.4-0.6,0.8
			s-0.6,0.6-0.7,0.7c-0.2,0.1-0.7,0.4-1.3,0.7c-0.6,0.3-1.3,0.6-2.1,1c-0.7,0.3-1.4,0.7-2.1,1c-0.7,0.3-1.1,0.5-1.4,0.6
			c0,0.2,0,0.5,0,1s0,1,0.1,1.5c0,0.5,0,1,0.1,1.5c0,0.5,0,0.8,0,1c0,0.3,0.1,0.8,0.1,1.3c0.1,0.6,0.1,1.1,0.1,1.6s0.1,1,0.1,1.4
			s0.1,0.6,0.1,0.6c0,0.1,0.1,0.4,0.2,0.8c0.1,0.4,0.3,0.8,0.5,1.2s0.4,0.8,0.5,1.2c0.2,0.4,0.3,0.7,0.5,0.9c0,0.1,0.1,0.2,0.3,0.4
			c0.1,0.1,0.3,0.3,0.4,0.4c0.2,0.1,0.3,0.3,0.5,0.4c0.1,0.1,0.2,0.1,0.3,0.1s0.5,0,1,0c0.6,0,1.2-0.1,1.8-0.2s1.2-0.1,1.8-0.2
			c0.5,0,0.9,0,1,0c0.2,0,0.5,0.2,0.8,0.5c0.4,0.3,0.6,0.6,0.7,0.8c0,0.1,0,0.2,0.1,0.3c0.1,0.2,0.1,0.3,0.1,0.4s0,0.2-0.1,0.4
			c0,0.1,0,0.2,0,0.3c-0.1,0.1-0.2,0.4-0.6,0.8c-0.3,0.4-0.6,0.6-0.7,0.7c-0.1,0.1-0.4,0.2-0.8,0.4c-0.4,0.2-0.8,0.3-1.2,0.5
			c-0.4,0.2-0.9,0.4-1.3,0.5c-0.4,0.2-0.7,0.3-0.8,0.3c0,0-0.1,0-0.3,0s-0.4,0.1-0.6,0.1c-0.2,0-0.5,0.1-0.7,0.1s-0.4,0.1-0.6,0.1
			c-0.2,0-0.4,0-0.6,0c-0.2,0-0.4,0-0.6,0c-0.2,0-0.5,0-0.8-0.1c-0.1,0-0.2-0.2-0.5-0.4c-0.3-0.2-0.5-0.5-0.9-0.8
			c-0.3-0.3-0.6-0.6-0.9-0.8c-0.3-0.3-0.5-0.5-0.7-0.7c-0.1-0.1-0.2-0.3-0.4-0.5c-0.2-0.2-0.3-0.5-0.5-0.8c-0.2-0.3-0.3-0.6-0.4-0.8
			c-0.1-0.2-0.2-0.4-0.2-0.5c-0.1-0.4-0.2-1-0.4-1.8c-0.2-0.8-0.3-1.7-0.5-2.7s-0.3-2.1-0.5-3.2c-0.1-1.1-0.3-2.2-0.5-3.2
			c-0.1-1-0.3-1.9-0.4-2.7C641,459.1,640.9,458.5,640.9,458.1z"/>
		<path class="st1" d="M659.5,467.9c0-0.4-0.1-1-0.1-1.7c0-0.7,0-1.5-0.1-2.1c0-0.7,0-1.3-0.1-1.8c0-0.5,0-0.8,0-0.9
			c0-0.3,0.1-0.9,0.1-1.8c0.1-0.8,0.2-1.7,0.3-2.6c0.1-0.9,0.2-1.8,0.3-2.6c0.1-0.8,0.2-1.3,0.2-1.6c0.1-0.2,0.3-0.5,0.6-0.8
			c0.3-0.4,0.6-0.6,0.7-0.7c0.1,0,0.3,0,0.7-0.1s0.6-0.1,0.7-0.1c0.1,0,0.2,0,0.4,0c0.1,0,0.3,0,0.5,0s0.4,0,0.6,0
			c0.1,0,0.3,0.2,0.6,0.5c0.3,0.3,0.6,0.6,0.9,0.9c0.3,0.3,0.6,0.6,0.9,0.9c0.3,0.3,0.5,0.4,0.6,0.5c0.2,0,0.6,0,1.3-0.1
			s1.4-0.1,2.2-0.2c0.8-0.1,1.5-0.1,2.2-0.2c0.7,0,1.1,0,1.3,0c0.1,0,0.3,0,0.7,0.1c0.3,0.1,0.6,0.2,0.9,0.3
			c0.3,0.1,0.6,0.3,0.8,0.4c0.2,0.2,0.4,0.3,0.5,0.4c0,0,0.1,0.2,0.3,0.4s0.3,0.5,0.5,0.8c0.2,0.3,0.3,0.6,0.5,0.9
			c0.1,0.3,0.2,0.5,0.3,0.6c0,0.1,0,0.2,0.1,0.3c0.1,0.2,0.1,0.3,0.1,0.4c0,0.1,0,0.3-0.1,0.5c0,0.1,0,0.2,0,0.3
			c-0.7,1.2-1.2,1.9-1.7,2.3c-0.4,0.4-0.9,0.6-1.4,0.5s-1-0.3-1.6-0.8s-1.4-1-2.4-1.6c-0.1-0.1-0.4-0.2-0.7-0.3s-0.6-0.3-0.9-0.4
			c-0.3-0.1-0.6-0.2-0.8-0.3c-0.3-0.1-0.4-0.2-0.5-0.2c-0.8,0-1.3,0.2-1.6,0.3c-0.3,0.2-0.7,0.6-1.1,1.2c0,0.3,0,0.9-0.1,1.6
			c0,0.7-0.1,1.6-0.1,2.5s-0.1,1.9-0.1,2.9s-0.1,2-0.1,2.9c-0.1,0.9-0.1,1.8-0.1,2.5c0,0.8-0.1,1.3-0.1,1.6c0,0.2-0.1,0.5-0.2,1
			c-0.1,0.4-0.2,0.9-0.3,1.3s-0.3,0.9-0.4,1.2c-0.1,0.4-0.2,0.6-0.3,0.7l-0.2,0.1c-0.1,0-0.1,0.1-0.2,0.1c-0.1,0-0.1,0-0.2,0
			c-0.2,0-0.4,0-0.5,0l-0.3-0.1c-0.6-0.5-1.2-1.1-1.9-1.8c-0.6-0.6-1-1.4-1.2-2.2c0,0,0-0.3-0.1-0.8c0-0.5-0.1-1.1-0.1-1.7
			c-0.1-0.7-0.1-1.3-0.2-2C659.6,468.8,659.5,468.2,659.5,467.9z"/>
		<path class="st1" d="M685.6,476.2c-0.6-0.2-1.2-0.5-1.6-1.1c-0.4-0.5-0.8-1.2-1-1.9c-0.3-0.7-0.4-1.4-0.6-2.1
			c-0.1-0.7-0.2-1.4-0.3-1.9c0-0.3,0-0.9,0-1.8s0.1-1.9,0.1-3s0.1-2.1,0.1-3.1s0.1-1.8,0.1-2.3c0.2-1.1,0.5-2.1,0.9-2.9
			c0.4-0.8,1-1.6,1.9-2.4c0.3-0.1,0.6-0.2,1-0.2s0.7,0,1.1,0.1c0.4,0.1,0.8,0.2,1.1,0.4c0.4,0.2,0.6,0.4,0.9,0.6
			c0.2,3.4,0.3,6.3,0.5,8.7c0.1,2.4,0.2,4.4,0.2,6s0,2.8,0,3.7s0,1.6-0.1,2c0,0.4-0.1,0.7-0.2,0.8c-0.1,0.1-0.1,0.2-0.1,0.2
			c-0.2,0-0.5,0-0.9,0.1c-0.4,0-0.8,0.1-1.3,0.1c-0.4,0-0.8,0-1.2,0.1C686,476.2,685.7,476.2,685.6,476.2z M686.9,446.4
			c-0.8-0.2-1.5-0.3-2.1-0.3s-1.1-0.2-1.6-0.4c-0.4-0.2-0.8-0.5-1-1c-0.3-0.5-0.5-1.2-0.6-2.1c0-0.1,0.1-0.4,0.3-0.9
			s0.4-0.9,0.6-1.2c0.1-0.1,0.3-0.3,0.5-0.6c0.2-0.3,0.4-0.4,0.5-0.4c0.4-0.1,1-0.1,1.7-0.3c0.7-0.1,1.4-0.2,2.2-0.2
			c0.7,0,1.4,0,2.1,0.2c0.6,0.1,1.1,0.4,1.3,0.9c0.1,0.6,0.2,1.2,0.3,1.8s0.1,1.2,0,1.7c-0.1,0.6-0.3,1.1-0.6,1.5
			c-0.3,0.5-0.8,0.9-1.4,1.2c-0.1,0-0.4,0.1-1,0.1C687.5,446.4,687.1,446.5,686.9,446.4z"/>
		<path class="st1" d="M701,454.6c-0.3-0.1-0.8-0.2-1.5-0.4c-0.7-0.2-1.4-0.5-2.2-0.7c-0.8-0.2-1.5-0.5-2.2-0.7
			c-0.7-0.2-1.1-0.4-1.4-0.5c-0.6-0.4-1-0.7-1.2-0.9c-0.1-0.3-0.1-0.5,0-0.7c0.2-0.2,0.5-0.4,0.9-0.6c0.4-0.2,0.9-0.4,1.5-0.7
			c0.2-0.1,0.5-0.2,1-0.4s1-0.3,1.5-0.5c0.5-0.2,1-0.4,1.5-0.5s0.8-0.2,1-0.3c-0.2-3.2-0.3-5.8-0.2-7.6c0-1.9,0.2-3.3,0.3-4.2
			c0.2-1,0.4-1.6,0.6-1.8c0.2-0.3,0.4-0.4,0.6-0.5c0.3-0.1,0.6-0.2,1-0.2c0.4-0.1,0.8-0.1,1.2-0.2c0.4,0,0.9-0.1,1.3-0.2l0.8,13.1
			c0,0,0.1,0.1,0.2,0.2c0.2,0.1,0.4,0.2,0.6,0.4c0.2,0.1,0.5,0.3,0.7,0.4c0.3,0.1,0.5,0.2,0.6,0.3c1-0.1,2,0,2.8,0.3
			c0.9,0.3,1.9,0.5,2.9,0.8c0.2,0.1,0.4,0.3,0.8,0.6c0.4,0.3,0.6,0.6,0.7,0.8c-0.1,0.2-0.3,0.4-0.6,0.8s-0.6,0.6-0.7,0.7
			c-0.2,0.2-0.7,0.4-1.3,0.7c-0.6,0.3-1.3,0.6-2.1,1c-0.7,0.3-1.4,0.7-2.1,1c-0.7,0.3-1.1,0.5-1.4,0.6c0,0.2,0,0.5,0,1s0,1,0.1,1.5
			c0,0.5,0.1,1,0.1,1.5s0,0.8,0,1c0,0.3,0,0.7,0.1,1.3s0.1,1.1,0.1,1.6s0.1,1,0.1,1.4s0.1,0.6,0.1,0.7s0.1,0.4,0.2,0.8
			c0.1,0.4,0.3,0.8,0.5,1.2s0.3,0.8,0.5,1.2s0.3,0.7,0.4,0.9c0,0.1,0.1,0.2,0.3,0.4c0.1,0.1,0.3,0.3,0.4,0.4
			c0.2,0.1,0.3,0.3,0.5,0.4c0.1,0.1,0.2,0.1,0.3,0.1s0.5,0,1,0c0.6,0,1.2-0.1,1.8-0.2c0.6-0.1,1.2-0.1,1.8-0.2c0.5,0,0.9,0,1,0
			c0.2,0,0.4,0.2,0.8,0.5c0.4,0.4,0.6,0.6,0.7,0.8c0,0.1,0,0.2,0.1,0.3c0.1,0.2,0.1,0.3,0.1,0.4c0,0.1,0,0.2-0.1,0.4
			c0,0.1,0,0.2,0,0.3c-0.1,0.1-0.2,0.4-0.6,0.8c-0.3,0.4-0.6,0.6-0.7,0.7c-0.1,0.1-0.4,0.2-0.8,0.4c-0.4,0.2-0.8,0.3-1.2,0.5
			c-0.4,0.2-0.9,0.4-1.3,0.5c-0.4,0.2-0.7,0.2-0.8,0.3c0,0-0.1,0-0.3,0.1c-0.2,0-0.4,0-0.6,0.1c-0.2,0-0.5,0.1-0.7,0.1
			s-0.4,0.1-0.6,0.1c-0.2,0-0.4,0-0.6,0c-0.2,0-0.4,0-0.6,0c-0.2,0-0.5,0-0.8-0.1c-0.1,0-0.2-0.2-0.5-0.4c-0.3-0.2-0.5-0.5-0.9-0.8
			c-0.3-0.3-0.6-0.5-0.9-0.8c-0.3-0.3-0.5-0.5-0.7-0.7c-0.1-0.1-0.2-0.3-0.4-0.5c-0.2-0.2-0.3-0.5-0.5-0.8c-0.2-0.3-0.3-0.6-0.4-0.8
			c-0.1-0.3-0.2-0.4-0.2-0.5c-0.1-0.4-0.2-1-0.4-1.8c-0.2-0.8-0.3-1.7-0.5-2.7s-0.3-2.1-0.5-3.2s-0.3-2.2-0.4-3.2
			c-0.2-1-0.3-1.9-0.4-2.7C701.1,455.6,701,455,701,454.6z"/>
		<path class="st1" d="M724,474c-0.6-0.2-1.2-0.5-1.6-1.1c-0.4-0.5-0.8-1.2-1-1.9c-0.2-0.7-0.4-1.4-0.6-2.1
			c-0.1-0.7-0.2-1.4-0.3-1.9c0-0.3,0-0.9,0-1.8c0-0.9,0.1-1.9,0.1-3s0.1-2.1,0.1-3.2c0-1,0.1-1.8,0.1-2.3c0.2-1.1,0.5-2.1,0.9-2.9
			c0.4-0.8,1-1.6,1.9-2.4c0.3-0.1,0.6-0.2,1-0.2s0.7,0,1.1,0.1c0.4,0.1,0.8,0.2,1.1,0.4c0.4,0.2,0.6,0.4,0.9,0.6
			c0.2,3.4,0.4,6.3,0.5,8.7c0.1,2.4,0.2,4.4,0.2,6s0,2.8,0,3.7s-0.1,1.6-0.1,2c-0.1,0.4-0.1,0.7-0.2,0.8c-0.1,0.1-0.1,0.2-0.2,0.2
			c-0.2,0-0.5,0-0.9,0.1c-0.4,0-0.8,0.1-1.3,0.1c-0.4,0-0.8,0-1.2,0C724.4,474,724.1,474,724,474z M725.3,444.2
			c-0.8-0.2-1.5-0.3-2.1-0.3s-1.1-0.2-1.6-0.4c-0.4-0.2-0.8-0.5-1-1s-0.5-1.2-0.6-2.1c0-0.1,0.1-0.4,0.3-0.9s0.4-0.9,0.6-1.2
			c0.1-0.1,0.3-0.3,0.5-0.6s0.4-0.4,0.5-0.4c0.4-0.1,1-0.1,1.7-0.3c0.7-0.1,1.4-0.2,2.2-0.2c0.7,0,1.4,0,2.1,0.2
			c0.6,0.1,1.1,0.4,1.3,0.9c0.1,0.6,0.2,1.2,0.3,1.8s0.1,1.2,0,1.7c-0.1,0.6-0.3,1.1-0.6,1.5c-0.3,0.5-0.7,0.9-1.4,1.2
			c-0.1,0-0.4,0.1-1,0.1S725.5,444.2,725.3,444.2z"/>
		<path class="st1" d="M734.1,461.4c0-0.1,0-0.3,0-0.6c0-0.3,0-0.5,0-0.8c0-0.2,0-0.6,0-0.9c0-0.1,0-0.2,0-0.5
			c0-0.3,0.1-0.5,0.2-0.8c0.1-0.3,0.1-0.6,0.2-0.9c0-0.3,0.1-0.5,0.2-0.7c0.2-0.7,0.4-1.4,0.7-2.2c0.3-0.7,0.7-1.4,1.1-2.1
			c0.3-0.6,0.8-1.1,1.4-1.6c0.6-0.5,1.1-0.9,1.6-1.4c1.5-0.6,2.9-1,4.3-1.3c1.4-0.3,2.7-0.4,3.8-0.4c1.2,0,2.2,0.2,3.1,0.6
			c0.9,0.4,1.6,0.9,2.1,1.7c0,0.1,0.1,0.2,0.3,0.5c0.2,0.2,0.3,0.4,0.4,0.6c0.2,0.2,0.4,0.6,0.7,1s0.4,0.6,0.5,0.7
			c0,0.1,0.1,0.2,0.2,0.5c0.1,0.3,0.2,0.5,0.4,0.9c0.1,0.4,0.2,0.7,0.4,1c0.1,0.3,0.2,0.6,0.3,0.8c0.2,0.4,0.3,0.8,0.4,1.2
			c0.1,0.4,0.1,0.9,0.2,1.4c0,0.8,0,1.6-0.1,2.3c-0.1,0.8-0.3,1.6-0.4,2.4c0,0.1-0.1,0.3-0.1,0.6c-0.1,0.3-0.2,0.6-0.2,1
			c-0.1,0.3-0.2,0.7-0.2,1c-0.1,0.3-0.1,0.5-0.2,0.7c-0.4,1.2-1,2.3-1.9,3.3c-0.8,1-1.9,1.9-3,2.5c-0.1,0-0.3,0.1-0.6,0.1
			c-0.3,0.1-0.6,0.2-0.9,0.3c-0.3,0.1-0.6,0.2-0.8,0.3c-0.3,0.1-0.4,0.1-0.5,0.2c-0.1,0-0.2,0.1-0.3,0.2c-0.1,0.1-0.2,0.2-0.4,0.3
			c-0.1,0.1-0.3,0.2-0.4,0.2c-0.1,0.1-0.2,0.1-0.3,0.1s-0.2,0-0.5,0s-0.5,0.1-0.7,0.1s-0.4,0-0.7,0s-0.5,0-0.6,0c0,0-0.2,0-0.5-0.1
			s-0.5-0.1-0.6-0.2c-0.1,0-0.3-0.1-0.7-0.3c-0.4-0.2-0.7-0.3-0.7-0.4c-0.6,0-1.1-0.1-1.7-0.5c-0.5-0.4-1.1-0.8-1.6-1.4
			c0,0-0.2-0.2-0.5-0.6c-0.3-0.4-0.5-0.6-0.6-0.8c-0.3-0.4-0.6-0.8-0.8-1.2s-0.5-0.8-0.7-1.2c0,0-0.1-0.2-0.2-0.6
			c-0.1-0.4-0.2-0.6-0.2-0.8c-0.1-0.2-0.2-0.6-0.3-1c-0.1-0.5-0.1-0.7-0.1-0.7s0-0.2,0-0.4c0-0.2,0-0.5-0.1-0.7
			c0-0.3-0.1-0.6-0.1-0.8C734.2,461.8,734.1,461.5,734.1,461.4z M739.6,460.4c0,0.1,0,0.3,0,0.5c0,0.2,0,0.4,0.1,0.6
			c0,0.2,0,0.4,0.1,0.5c0,0.2,0,0.2,0,0.3s0,0.2,0.1,0.4c0.1,0.2,0.1,0.4,0.2,0.7c0.1,0.2,0.1,0.5,0.2,0.7c0.1,0.2,0.1,0.4,0.2,0.5
			c0.1,0.2,0.2,0.5,0.5,0.9c0.2,0.4,0.4,0.7,0.5,0.8s0.4,0.3,0.7,0.7c0.4,0.3,0.6,0.5,0.8,0.6c0.7,0.3,1.5,0.4,2.4,0.3
			c0.9-0.2,1.6-0.4,2.3-0.8c0.1-0.2,0.2-0.4,0.5-0.5c0.2-0.1,0.4-0.3,0.5-0.4c0.1,0,0.3-0.2,0.7-0.6c0.3-0.3,0.6-0.5,0.7-0.6
			l0.1-0.1l0.1-0.1c0.1,0,0.1-0.1,0.1-0.3c0-0.2,0.1-0.3,0.1-0.3l0.1-0.1c0-0.1,0.1-0.2,0.1-0.2c0.1-0.1,0.2-0.3,0.2-0.7
			c0.1-0.4,0.2-0.6,0.2-0.7c0-0.1,0.1-0.3,0.2-0.6c0.1-0.3,0.1-0.5,0.1-0.5s0-0.1,0-0.3c0-0.2,0-0.3,0-0.5c0-0.2,0-0.4,0-0.6
			c0-0.2,0-0.4,0-0.5s0-0.3,0-0.6c0-0.2,0-0.4-0.1-0.6c0-0.2-0.1-0.4-0.1-0.5c0-0.2,0-0.2,0-0.3s-0.1-0.2-0.2-0.5
			c-0.1-0.3-0.2-0.4-0.3-0.6c-0.4-0.9-0.8-1.5-1.3-1.8c-0.5-0.3-1.1-0.7-1.9-1c-0.3-0.1-0.5-0.2-0.8-0.2c-0.2,0-0.5,0-0.9-0.1
			c-1,0.1-1.9,0.2-2.8,0.5c-0.2,0-0.4,0.2-0.6,0.4c-0.2,0.2-0.5,0.4-0.7,0.4c-0.1,0.1-0.2,0.2-0.3,0.3c-0.1,0.2-0.2,0.3-0.4,0.5
			c-0.2,0.2-0.3,0.3-0.4,0.4c-0.1,0.1-0.2,0.2-0.2,0.2c-0.1,0-0.2,0.2-0.2,0.5c-0.1,0.3-0.2,0.5-0.2,0.7c-0.1,0.2-0.1,0.4-0.3,0.8
			c-0.1,0.4-0.2,0.6-0.2,0.6c0,0.1,0,0.4,0,0.8C739.6,459.8,739.6,460.2,739.6,460.4z"/>
		<path class="st1" d="M757.8,451.5c0-0.1,0-0.3,0.1-0.5c0-0.2,0.1-0.4,0.1-0.7c0.1-0.3,0.1-0.5,0.1-0.7c0-0.2,0.1-0.4,0.1-0.5
			c0-0.1,0.1-0.3,0.2-0.6c0.1-0.3,0.2-0.5,0.3-0.6c0-0.1,0.1-0.2,0.2-0.3c0.1-0.1,0.2-0.2,0.3-0.3c0.2-0.1,0.4-0.2,0.6-0.4
			c0.3-0.2,0.5-0.3,0.5-0.3s0.2,0.1,0.5,0.2s0.5,0.2,0.7,0.3c0.1,0,0.2,0.1,0.4,0.2s0.4,0.2,0.5,0.3c0.2,0.1,0.4,0.2,0.5,0.3
			c0.2,0.1,0.3,0.2,0.4,0.2c0.1-0.1,0.4-0.3,0.7-0.5c0.3-0.2,0.7-0.5,1-0.7c0.3-0.3,0.7-0.5,1-0.8c0.3-0.2,0.5-0.4,0.7-0.5
			c0.1-0.1,0.2-0.2,0.6-0.3c0.3-0.1,0.5-0.2,0.6-0.3c0.2-0.1,0.5-0.3,0.9-0.5c0.4-0.2,0.7-0.3,0.7-0.3s0.1,0,0.3,0s0.4,0,0.6-0.1
			c0.2,0,0.4-0.1,0.7-0.1c0.2,0,0.4,0,0.6,0c0.3,0,0.7,0,1.2,0s0.7,0,0.8,0s0.2,0.1,0.4,0.2s0.5,0.2,0.7,0.3s0.5,0.2,0.7,0.4
			c0.3,0.1,0.4,0.2,0.5,0.2c0.1,0.1,0.3,0.2,0.6,0.5c0.3,0.3,0.5,0.5,0.6,0.5c0.1,0.1,0.2,0.3,0.3,0.6c0.2,0.3,0.4,0.6,0.6,1
			c0.2,0.4,0.4,0.7,0.6,1.1c0.2,0.4,0.3,0.6,0.5,0.8c0.1,0.1,0.2,0.4,0.4,0.8c0.2,0.4,0.3,0.7,0.3,0.9c0,0.1,0.1,0.4,0.2,0.7
			c0.1,0.3,0.1,0.7,0.2,1c0.1,0.4,0.2,0.7,0.2,1c0.1,0.3,0.1,0.6,0.1,0.7c0,0.3,0.1,0.8,0.2,1.5c0.1,0.7,0.2,1.5,0.3,2.3
			c0.1,0.8,0.2,1.5,0.3,2.2c0.1,0.7,0.1,1.2,0.2,1.5c0,0,0,0.2,0,0.4c0,0.2,0.1,0.4,0.1,0.7c0,0.3,0,0.5,0.1,0.8
			c0,0.3,0.1,0.5,0.1,0.6s0,0.3,0,0.6c0,0.2,0,0.5,0,0.7c0,0.2,0,0.5,0,0.9c0,0.1,0,0.4,0,0.7c0,0.3-0.1,0.6-0.1,0.9
			c0,0.3-0.1,0.6-0.1,0.8c-0.1,0.2-0.1,0.4-0.1,0.5c-0.1,0.2-0.2,0.4-0.5,0.7c-0.3,0.3-0.5,0.5-0.6,0.5c0,0-0.2,0-0.4,0.1
			c-0.3,0-0.5,0-0.7,0.1c-0.2,0-0.4,0-0.7,0s-0.5,0-0.5,0s-0.1-0.1-0.3-0.2c-0.1-0.1-0.3-0.2-0.3-0.3c-0.1-0.1-0.2-0.3-0.3-0.6
			c-0.2-0.3-0.3-0.5-0.4-0.6c0-0.1-0.1-0.3-0.2-0.6c-0.1-0.3-0.2-0.6-0.2-0.9c-0.1-0.3-0.1-0.6-0.2-0.9c-0.1-0.3-0.1-0.4-0.1-0.5
			c0,0,0-0.2,0-0.4c0-0.2,0-0.5-0.1-0.8c0-0.3-0.1-0.6-0.1-0.9c0-0.3,0-0.6,0-0.8c0-0.2,0-0.4,0-0.7c0-0.3,0-0.6,0-0.9
			c0-0.3,0-0.6,0-0.8c0-0.2,0-0.4,0-0.4c0-0.1,0-0.3,0-0.7c0-0.3,0.1-0.7,0.1-1.1c0.1-0.4,0.1-0.8,0.1-1.1c0.1-0.3,0.1-0.6,0.1-0.7
			c0,0,0-0.2,0-0.6c0-0.4,0-0.7,0-0.9c0-0.2,0-0.4-0.1-0.8c-0.1-0.3-0.1-0.5-0.1-0.6s-0.1-0.3-0.3-0.7c-0.1-0.4-0.3-0.7-0.4-0.9
			c-0.1-0.1-0.2-0.3-0.3-0.6c-0.2-0.3-0.2-0.4-0.3-0.5c-0.1-0.1-0.2-0.2-0.4-0.3s-0.4-0.2-0.5-0.3c-0.2-0.1-0.4-0.2-0.5-0.3
			c-0.2-0.1-0.3-0.1-0.3-0.1s-0.2,0-0.6,0c-0.3,0-0.6,0-0.8,0s-0.5,0-0.9,0.1c-0.4,0-0.6,0.1-0.7,0.1c-0.1,0-0.2,0.1-0.5,0.2
			c-0.3,0.2-0.5,0.3-0.6,0.4c-0.1,0.1-0.2,0.2-0.3,0.3s-0.2,0.2-0.2,0.3c0,0.1-0.1,0.3-0.2,0.8c-0.1,0.4-0.2,0.8-0.2,1
			c0,0.1-0.1,0.3-0.1,0.6c-0.1,0.3-0.1,0.5-0.1,0.8c0,0.3-0.1,0.5-0.1,0.7c0,0.2-0.1,0.3-0.1,0.3c0,0.3,0,0.9-0.1,1.6
			c0,0.7-0.1,1.6-0.1,2.5s0,1.9-0.1,2.9c0,1,0,2-0.1,2.9c0,0.9-0.1,1.7-0.1,2.4c0,0.7,0,1.3,0,1.6c0,0.2-0.1,0.5-0.2,0.9
			c-0.1,0.4-0.2,0.7-0.3,0.9c-0.1,0.1-0.2,0.2-0.3,0.4c-0.1,0.2-0.3,0.4-0.5,0.6s-0.3,0.4-0.5,0.6s-0.3,0.3-0.4,0.3
			c-0.1,0-0.1,0.1-0.2,0.1h-0.3c-0.1,0-0.2,0-0.3,0c-0.2,0-0.2,0-0.3,0s-0.3-0.1-0.6-0.2s-0.5-0.2-0.5-0.3c-0.1-0.1-0.4-0.4-0.7-0.8
			c-0.3-0.4-0.5-0.7-0.6-0.8c0-0.1-0.1-0.2-0.2-0.4c-0.1-0.2-0.1-0.5-0.2-0.7c-0.1-0.2-0.1-0.5-0.2-0.7c-0.1-0.2-0.1-0.4-0.1-0.5
			c0-0.2-0.1-0.7-0.2-1.5c-0.1-0.8-0.2-1.6-0.3-2.5s-0.2-1.8-0.3-2.5c-0.1-0.8-0.1-1.3-0.2-1.5c0-0.1-0.1-0.3-0.1-0.7
			c-0.1-0.4-0.2-0.8-0.3-1.3s-0.1-0.9-0.3-1.3c-0.1-0.4-0.1-0.7-0.1-0.8c0-0.2-0.1-0.6-0.2-1.1c-0.1-0.5-0.2-1-0.3-1.5
			s-0.2-0.9-0.3-1.3c-0.1-0.4-0.1-0.6-0.1-0.7v-0.6L757.8,451.5z"/>
	</g>
	<g>
		<g>
			<g>
				<path class="st1" d="M320.8,437.1c-4.1,6.2-8.5,12.1-11.4,19c-0.5,1.3,2.2,1.8,2.7,0.6c2.9-6.9,7.3-12.8,11.4-19
					C324.3,436.6,321.5,436.1,320.8,437.1L320.8,437.1z"/>
			</g>
		</g>
		<g>
			<g>
				<path class="st1" d="M306.6,441.6c6.3,4,10.2,10.7,16.3,15.1c0.9,0.6,3.5-0.5,2.2-1.3c-6.1-4.4-10-11.1-16.3-15.1
					C308,439.7,305.4,440.8,306.6,441.6L306.6,441.6z"/>
			</g>
		</g>
		<g>
			<g>
				<path class="st1" d="M310.3,440.4c2.7,5.1,4,10.8,6,16.2c0.3,0.8,2.2,2.4,1.6,0.6c-2.1-5.6-3.6-11.5-6.3-16.9
					C311,439.4,309.5,438.7,310.3,440.4L310.3,440.4z"/>
			</g>
		</g>
		<g>
			<g>
				<path class="st1" d="M307.9,451.7c6-2.6,12.1-5.1,18.4-7.1c1.6-0.5,0.4-3-1-2.5c-6.5,2.1-12.8,4.6-19,7.3
					C304.9,450,306.6,452.3,307.9,451.7L307.9,451.7z"/>
			</g>
		</g>
	</g>
</g>
</svg>
